{"title":"Dead Man Down (2013) CAM XviD-HustleHard","uid":8289919,"size":1147863817,"categoryP":"video","categoryS":"movies","magnet":"?xt=urn:btih:34a86d58aa8e4e2fca5c0300500333fbd17d9386&amp;dn=Dead+Man+Down+%282013%29+CAM+XviD-HustleHard&amp;tr=udp%3A%2F%2Ftracker.openbittorrent.com%3A80&amp;tr=udp%3A%2F%2Fopen.demonii.com%3A1337&amp;tr=udp%3A%2F%2Ftracker.coppersurfer.tk%3A6969&amp;tr=udp%3A%2F%2Fexodus.desync.com%3A6969","seeders":1,"leechers":0,"uploader":"tykoon123","files":-1,"time":1364029118,"description":" &lt;a href=&quot;http://imgr.us/images/k0ylhkhm2nwdm04tnrir.jpg&quot; rel=&quot;nofollow&quot; target=&quot;_NEW&quot;&gt;http://imgr.us/images/k0ylhkhm2nwdm04tnrir.jpg&lt;/a&gt;\n\nInfo:\n\nIMDB : http://www.imdb.com/title/tt2101341/\n\n\nFormat : MPEG-4\nFormat profile : Base Media\nCodec ID : isom\nFile size : 1.07 GiB\nDuration : 1h 33mn\nOverall bit rate mode : Variable\nOverall bit rate : 1 630 Kbps\nEncoded date : UTC 2013-03-22 07:48:25\nTagged date : UTC 2013-03-22 07:48:30\n\nVideo\nID : 2\nFormat : AVC\nFormat/Info : Advanced Video Codec\nFormat profile : &lt;a class=&quot;__cf_email__&quot; href=&quot;/cdn-cgi/l/email-protection&quot; data-cfemail=&quot;b5f7d4c6d0d9dcdbd0f5f9869b84&quot;&gt;[email&amp;#160;protected]&lt;/a&gt;&lt;script cf-hash='f9e31' type=&quot;text/javascript&quot;&gt;\n/* &lt;![CDATA[ */!function(){try{var t=&quot;currentScript&quot;in document?document.currentScript:function(){for(var t=document.getElementsByTagName(&quot;script&quot;),e=t.length;e--;)if(t[e].getAttribute(&quot;cf-hash&quot;))return t[e]}();if(t&amp;&amp;t.previousSibling){var e,r,n,i,c=t.previousSibling,a=c.getAttribute(&quot;data-cfemail&quot;);if(a){for(e=&quot;&quot;,r=parseInt(a.substr(0,2),16),n=2;a.length-n;n+=2)i=parseInt(a.substr(n,2),16)^r,e+=String.fromCharCode(i);e=document.createTextNode(e),c.parentNode.replaceChild(e,c)}}}catch(u){}}();/* ]]&gt; */&lt;/script&gt;\nFormat settings, CABAC : No\nFormat settings, ReFrames : 1 frame\nFormat settings, GOP : M=1, N=24\nMuxing mode : Container profile=&lt;a class=&quot;__cf_email__&quot; href=&quot;/cdn-cgi/l/email-protection&quot; data-cfemail=&quot;6c2e0d1f09000502092c5f425c&quot;&gt;[email&amp;#160;protected]&lt;/a&gt;&lt;script cf-hash='f9e31' type=&quot;text/javascript&quot;&gt;\n/* &lt;![CDATA[ */!function(){try{var t=&quot;currentScript&quot;in document?document.currentScript:function(){for(var t=document.getElementsByTagName(&quot;script&quot;),e=t.length;e--;)if(t[e].getAttribute(&quot;cf-hash&quot;))return t[e]}();if(t&amp;&amp;t.previousSibling){var e,r,n,i,c=t.previousSibling,a=c.getAttribute(&quot;data-cfemail&quot;);if(a){for(e=&quot;&quot;,r=parseInt(a.substr(0,2),16),n=2;a.length-n;n+=2)i=parseInt(a.substr(n,2),16)^r,e+=String.fromCharCode(i);e=document.createTextNode(e),c.parentNode.replaceChild(e,c)}}}catch(u){}}();/* ]]&gt; */&lt;/script&gt;\nCodec ID : avc1\nCodec ID/Info : Advanced Video Coding\nDuration : 1h 33mn\nBit rate mode : Variable\nBit rate : 1 496 Kbps\nMaximum bit rate : 2 250 Kbps\nWidth : 848 pixels\nHeight : 480 pixels\nDisplay aspect ratio : 16:9\nOriginal display aspect ratio : 16:9\nFrame rate mode : Constant\nFrame rate : 29.970 fps\nColor space : YUV\nChroma subsampling : 4:2:0\nBit depth : 8 bits\nScan type : Progressive\nBits/(Pixel*Frame) : 0.123\nStream size : 1 005 MiB (92%)\nLanguage : English\n\nAudio\nID : 1\nFormat : AAC\nFormat/Info : Advanced Audio Codec\nFormat profile : LC\nCodec ID : 40\nDuration : 1h 33mn\nBit rate mode : Variable\nBit rate : 128 Kbps\nMaximum bit rate : 201 Kbps\nChannel(s) : 2 channels\nChannel positions : Front: L R\nSampling rate : 48.0 KHz\nCompression mode : Lossy\nStream size : 86.0 MiB (8%)\nLanguage : English\n\n\nScreens: &lt;a href=&quot;\nhttp://imgr.us/images/09vbwtk3740ezk6sqcs1.jpg&quot; rel=&quot;nofollow&quot; target=&quot;_NEW&quot;&gt;\nhttp://imgr.us/images/09vbwtk3740ezk6sqcs1.jpg&lt;/a&gt; &lt;a href=&quot;\nhttp://imgr.us/images/owuhvrfs0fsibs92xwim.jpg&quot; rel=&quot;nofollow&quot; target=&quot;_NEW&quot;&gt;\nhttp://imgr.us/images/owuhvrfs0fsibs92xwim.jpg&lt;/a&gt; &lt;a href=&quot;\nhttp://imgr.us/images/zu29a3zsfe6u03jifgw.jpg&quot; rel=&quot;nofollow&quot; target=&quot;_NEW&quot;&gt;\nhttp://imgr.us/images/zu29a3zsfe6u03jifgw.jpg&lt;/a&gt; &lt;a href=&quot;\nhttp://imgr.us/images/7dh5bln4y6xppl18786f.jpg&quot; rel=&quot;nofollow&quot; target=&quot;_NEW&quot;&gt;\nhttp://imgr.us/images/7dh5bln4y6xppl18786f.jpg&lt;/a&gt; &lt;a href=&quot;\nhttp://iceimg.com/i/02/f7/c61f31310b.png&quot; rel=&quot;nofollow&quot; target=&quot;_NEW&quot;&gt;\nhttp://iceimg.com/i/02/f7/c61f31310b.png&lt;/a&gt;","torrent":{"xt":"urn:btih:34a86d58aa8e4e2fca5c0300500333fbd17d9386","amp;dn":"Dead+Man+Down+%282013%29+CAM+XviD-HustleHard","amp;tr":["udp%3A%2F%2Ftracker.openbittorrent.com%3A80","udp%3A%2F%2Fopen.demonii.com%3A1337","udp%3A%2F%2Ftracker.coppersurfer.tk%3A6969","udp%3A%2F%2Fexodus.desync.com%3A6969"],"infoHash":"34a86d58aa8e4e2fca5c0300500333fbd17d9386","infoHashBuffer":{"type":"Buffer","data":[52,168,109,88,170,142,78,47,202,92,3,0,80,3,51,251,209,125,147,134]},"announce":[],"urlList":[]}}